<svg xmlns="http://www.w3.org/2000/svg" x="0px" y="0px" width="50" height="50" viewBox="0 0 48 48">
<path d="M 27.568359 2.0078125 C 27.351133 2.0012272 27.133648 2.0108369 26.916016 2.0351562 C 26.335663 2.1000083 25.759416 2.2760473 25.220703 2.5722656 L 24.773438 2.8183594 A 1.50015 1.50015 0 0 0 24.771484 2.8203125 C 24.287051 3.0874253 23.702856 3.0860788 23.216797 2.8183594 A 1.50015 1.50015 0 0 0 23.214844 2.8183594 L 22.769531 2.5742188 C 20.614934 1.3894844 17.868879 2.1237271 16.595703 4.2285156 L 16.332031 4.6640625 A 1.50015 1.50015 0 0 0 16.330078 4.6640625 C 16.041759 5.1400759 15.53674 5.4333525 14.982422 5.4453125 L 14.470703 5.4570312 C 12.011077 5.5070773 10.001237 7.5155214 9.9511719 9.9746094 L 9.9394531 10.486328 C 9.9279931 11.042676 9.63706 11.548782 9.1621094 11.835938 L 8.7226562 12.101562 C 6.6186937 13.375131 5.8832334 16.120081 7.0683594 18.275391 A 1.50015 1.50015 0 0 0 7.0703125 18.275391 L 7.3164062 18.724609 C 7.5821442 19.208953 7.5834192 19.795536 7.3164062 20.28125 L 7.0703125 20.726562 C 5.884926 22.880875 6.6193828 25.626949 8.7246094 26.900391 L 9.1601562 27.166016 A 1.50015 1.50015 0 0 0 9.1621094 27.166016 C 9.6377076 27.454083 9.9294261 27.96037 9.9414062 28.515625 L 9.953125 29.027344 C 9.9925153 30.923214 11.200545 32.541802 12.876953 33.210938 L 10.109375 39.929688 A 1.50015 1.50015 0 0 0 11.496094 42 L 16.775391 42 L 20.326172 46.4375 A 1.50015 1.50015 0 0 0 22.890625 46.056641 L 24.748047 41.414062 L 26.603516 46.056641 A 1.50015 1.50015 0 0 0 29.167969 46.4375 L 32.71875 42 L 37.996094 42 A 1.50015 1.50015 0 0 0 39.384766 39.929688 L 36.322266 32.492188 C 37.339377 31.662444 38.013938 30.424628 38.042969 29.027344 L 38.042969 29.025391 L 38.052734 28.515625 A 1.50015 1.50015 0 0 0 38.052734 28.513672 C 38.064174 27.958766 38.356879 27.453547 38.830078 27.167969 A 1.50015 1.50015 0 0 0 38.833984 27.166016 L 39.271484 26.900391 L 39.273438 26.898438 C 41.375523 25.624222 42.110961 22.880498 40.925781 20.726562 A 1.50015 1.50015 0 0 0 40.921875 20.720703 L 40.675781 20.277344 C 40.408059 19.791284 40.408668 19.20709 40.675781 18.722656 A 1.50015 1.50015 0 0 0 40.677734 18.720703 L 40.921875 18.273438 C 42.106496 16.119046 41.374068 13.372924 39.267578 12.099609 L 38.832031 11.835938 L 38.830078 11.833984 C 38.354186 11.544099 38.062761 11.040118 38.050781 10.484375 L 38.039062 9.9746094 L 38.039062 9.9726562 C 37.987792 7.5147878 35.979913 5.50513 33.521484 5.4550781 L 33.009766 5.4453125 A 1.50015 1.50015 0 0 0 33.009766 5.4433594 C 32.454353 5.4319196 31.947372 5.1405456 31.660156 4.6660156 L 31.394531 4.2285156 C 30.558835 2.8469607 29.088947 2.0539093 27.568359 2.0078125 z M 27.570312 4.9980469 C 28.072361 5.0339622 28.542776 5.3095166 28.828125 5.78125 L 29.09375 6.21875 C 29.9102 7.5676677 31.365474 8.4101508 32.945312 8.4433594 L 33.457031 8.4550781 A 1.50015 1.50015 0 0 0 33.458984 8.4550781 C 34.339896 8.4730131 35.023081 9.1542446 35.041016 10.035156 A 1.50015 1.50015 0 0 0 35.041016 10.037109 L 35.050781 10.548828 C 35.084781 12.126133 35.926734 13.582038 37.275391 14.400391 A 1.50015 1.50015 0 0 0 37.277344 14.402344 L 37.714844 14.666016 C 38.470354 15.122701 38.718348 16.054516 38.292969 16.828125 L 38.048828 17.275391 C 37.285941 18.658957 37.286551 20.342623 38.048828 21.726562 A 1.50015 1.50015 0 0 0 38.050781 21.730469 L 38.296875 22.173828 C 38.721236 22.945057 38.470834 23.877552 37.716797 24.333984 A 1.50015 1.50015 0 0 0 37.714844 24.333984 L 37.28125 24.599609 C 35.928449 25.416032 35.087246 26.872078 35.054688 28.451172 L 35.042969 28.962891 A 1.50015 1.50015 0 0 0 35.042969 28.964844 C 35.025019 29.847218 34.343803 30.52894 33.462891 30.546875 A 1.50015 1.50015 0 0 0 33.460938 30.546875 L 32.949219 30.556641 C 31.371934 30.590641 29.915589 31.430848 29.097656 32.78125 A 1.50015 1.50015 0 0 0 29.095703 32.783203 L 28.832031 33.220703 C 28.375472 33.975477 27.443072 34.223955 26.669922 33.798828 L 26.222656 33.552734 C 24.838694 32.789629 23.155447 32.789629 21.771484 33.552734 L 21.326172 33.798828 C 20.554438 34.223176 19.620691 33.972874 19.164062 33.220703 L 18.898438 32.783203 C 18.081892 31.432492 16.62578 30.589829 15.046875 30.556641 L 15.044922 30.556641 L 14.535156 30.546875 A 1.50015 1.50015 0 0 0 14.533203 30.546875 C 13.650829 30.528925 12.969126 29.847218 12.951172 28.964844 A 1.50015 1.50015 0 0 0 12.951172 28.962891 L 12.941406 28.451172 C 12.907396 26.874907 12.066478 25.419635 10.716797 24.601562 L 10.279297 24.333984 A 1.50015 1.50015 0 0 0 10.277344 24.333984 C 9.5227451 23.877507 9.2726521 22.945517 9.6972656 22.173828 L 9.9433594 21.726562 A 1.50015 1.50015 0 0 0 9.9453125 21.726562 C 10.705965 20.342886 10.704617 18.660647 9.9433594 17.277344 A 1.50015 1.50015 0 0 0 9.9433594 17.275391 L 9.6972656 16.830078 L 9.6972656 16.828125 C 9.2738108 16.055844 9.5239094 15.124036 10.277344 14.667969 L 10.714844 14.402344 C 12.06534 13.585833 12.906264 12.129686 12.939453 10.550781 L 12.939453 10.548828 L 12.951172 10.039062 A 1.50015 1.50015 0 0 0 12.951172 10.037109 C 12.969102 9.1561978 13.650829 8.4730319 14.533203 8.4550781 A 1.50015 1.50015 0 0 0 14.535156 8.4550781 L 15.046875 8.4453125 C 16.624557 8.4112725 18.078804 7.5687366 18.896484 6.21875 L 19.162109 5.7832031 A 1.50015 1.50015 0 0 0 19.162109 5.78125 C 19.390473 5.4037395 19.738578 5.1523245 20.125 5.0488281 C 20.511422 4.9453317 20.937517 4.9904921 21.324219 5.203125 L 21.769531 5.4472656 C 23.152903 6.2092295 24.835506 6.2092112 26.21875 5.4472656 L 26.666016 5.2011719 C 26.955946 5.0417493 27.269083 4.9764977 27.570312 4.9980469 z M 23.996094 8 C 17.662583 8 12.496094 13.166494 12.496094 19.5 C 12.496094 25.833506 17.662583 31 23.996094 31 C 30.329605 31 35.496094 25.833506 35.496094 19.5 C 35.496094 13.166494 30.329605 8 23.996094 8 z M 23.996094 11 C 28.708285 11 32.496094 14.787811 32.496094 19.5 C 32.496094 24.212189 28.708285 28 23.996094 28 C 19.283902 28 15.496094 24.212189 15.496094 19.5 C 15.496094 14.787811 19.283902 11 23.996094 11 z M 24.029297 13.5 C 21.391297 13.5 20.080453 15.04275 19.939453 15.21875 C 19.515453 15.74975 19.601047 16.513219 20.123047 16.949219 C 20.646047 17.385219 21.430953 17.313781 21.876953 16.800781 C 21.905953 16.767781 22.589297 16 24.029297 16 C 24.640297 16 25.666016 16.146 25.666016 17.125 C 25.666016 17.975 24.656016 18.25 24.166016 18.25 L 23.916016 18.25 C 23.226016 18.25 22.666016 18.81 22.666016 19.5 C 22.666016 20.19 23.226016 20.75 23.916016 20.75 C 24.444016 20.75 26.166016 20.831 26.166016 21.875 C 26.166016 22.919 24.729063 23 24.289062 23 C 22.745062 23 21.829781 22.142234 21.800781 22.115234 C 21.312781 21.627234 20.521203 21.627234 20.033203 22.115234 C 19.544203 22.603234 19.544203 23.396766 20.033203 23.884766 C 20.198203 24.049766 21.722062 25.5 24.289062 25.5 C 26.907062 25.5 28.666016 24.043 28.666016 21.875 C 28.666016 20.794 28.216969 19.900484 27.417969 19.271484 C 27.879969 18.700484 28.166016 17.977 28.166016 17.125 C 28.166016 14.957 26.503297 13.5 24.029297 13.5 z M 33.511719 33.544922 L 35.757812 39 L 31.996094 39 A 1.50015 1.50015 0 0 0 30.826172 39.5625 L 28.433594 42.552734 L 26.363281 37.376953 L 26.558594 36.888672 C 28.410175 37.247838 30.376725 36.462509 31.398438 34.773438 L 31.664062 34.335938 C 31.952289 33.861252 32.457561 33.568628 33.013672 33.556641 L 33.511719 33.544922 z M 15.857422 33.849609 C 16.043869 33.977718 16.210871 34.135539 16.332031 34.335938 L 16.595703 34.773438 A 1.50015 1.50015 0 0 0 16.597656 34.773438 C 17.871349 36.876134 20.615715 37.613113 22.771484 36.427734 L 23.220703 36.179688 C 23.363693 36.100844 23.51627 36.051792 23.671875 36.019531 L 21.060547 42.552734 L 18.667969 39.5625 A 1.50015 1.50015 0 0 0 17.496094 39 L 13.736328 39 L 15.857422 33.849609 z"></path>
</svg>