<svg xmlns="http://www.w3.org/2000/svg" x="0px" y="0px" width="50" height="50" viewBox="0 0 48 48">
<path d="M 24 4 C 12.972066 4 4 12.972074 4 24 C 4 35.027926 12.972066 44 24 44 C 35.027934 44 44 35.027926 44 24 C 44 12.972074 35.027934 4 24 4 z M 24 7 C 33.406615 7 41 14.593391 41 24 C 41 33.406609 33.406615 41 24 41 C 14.593385 41 7 33.406609 7 24 C 7 14.593391 14.593385 7 24 7 z M 28.470703 17.986328 A 1.50015 1.50015 0 0 0 28.308594 18 L 20.5 18 A 1.50015 1.50015 0 1 0 20.5 21 L 24.878906 21 L 17.439453 28.439453 A 1.50015 1.50015 0 1 0 19.560547 30.560547 L 27 23.121094 L 27 27.5 A 1.50015 1.50015 0 1 0 30 27.5 L 30 19.689453 A 1.50015 1.50015 0 0 0 28.470703 17.986328 z"></path>
</svg>